<svg xmlns="http://www.w3.org/2000/svg" xml:space="preserve" width="282.97226" height="283.198" fill-rule="evenodd" stroke-linejoin="round" stroke-miterlimit="2" clip-rule="evenodd" version="1.1" viewBox="0 0 282.97226 283.198" aria-hidden="true">
  <path fill="#e65c55" fill-rule="nonzero" d="M139.46 282.794c-24.33-1.776-51.394-11.24-69.814-24.412-1.65-1.18-4.575-2.763-6.5-3.518-5.718-2.243-12.68-9.642-18.682-19.855-6.399-10.888-8.276-17.535-16.486-23.167-5.409-3.711-11.304-9.986-13.667-14.55-.605-1.167-1.989-6.792-3.076-12.5-1.087-5.706-3.166-14.425-4.62-19.375l-2.645-9S.208 136.329.015 127.232C-.177 118.2 1.386 104.06 6.41 93.937c6.825-13.75 15.14-33.151 30.551-49.2C47.417 33.849 53.396 29.82 64.146 26.42c8.046-2.545 22.74-9.348 26-12.038 3.55-2.928 23-11.402 28.434-12.388 7.606-1.381 16.947-.405 19.066-.077 1.69.26 4.11 1.215 10.5-.5 6.914-1.856 12.652-1.886 19.856-.104 3.104.767 11.27 1.66 18.144 1.985 10.764.508 13.51 1.003 19.761 3.567 12.653 5.187 21.235 10.816 28.74 18.85 12.933 13.846 14.885 14.97 16.038 16.452 3.672 4.082 10.37 14.11 11.028 15.294 1.982 3.679 6.296 15.82 7.978 22.456 1.406 5.549 1.462 7.272.385 11.779-1.152 4.814-1.054 5.946 1.104 12.828 1.302 4.15 3.426 8.975 4.721 10.72 5.027 6.778 6.357 11.505 6.938 24.673.315 7.137.053 16.576-.61 22-1.06 8.657-1.828 10.876-8.655 25-9.055 18.733-8.373 17.513-16.569 29.658-13.394 19.848-28.969 33.642-49.74 44.053-5.84 2.926-11.969 6.635-13.619 8.242-7.13 6.944-24.762 13.639-37.5 14.24-4.125.196-11.634.053-16.687-.316zm-37.554-97.377c.143-21.45.368-39.253.5-39.561.132-.31 5.64 2.323 12.24 5.849 6.6 3.525 24.355 12.686 39.454 20.357 15.1 7.672 29.588 15.157 30.29 15.738.926.769.08 5.506.277 18.706l-.02 17.91 7.627.29 7.63.29.59-9.29c.635-10.022 1.094-82.195.821-129.422l-.169-29.132-7.574-.71c-4.166-.39-7.833-.451-8.149-.135-.316.316-.784 18.245-1.04 39.842-.257 21.597-.565 39.38-.687 39.52-.12.138-7.832-3.844-17.135-8.85-9.303-5.004-23.665-12.49-31.915-16.632-8.25-4.143-18.927-9.747-23.727-12.453l-8.728-4.92-.545-36.397-7.403-.297c-4.07-.163-7.798.098-8.28.58-.906.906-1.39 165.487-.493 166.92.274.439 4.025.797 8.337.797h7.84zm63.74-26.591c-9.35-4.987-27.462-14.262-40.25-20.611l-23.25-11.544v-14.917l3.25 1.943c8.644 5.169 32.605 17.868 54.25 28.753l24 12.069.296 6.699c.163 3.684-.062 6.694-.5 6.687-.438-.005-8.446-4.092-17.796-9.08z"/>
</svg>